<svg width="28" height="28" viewBox="0 0 28 28" fill="none" xmlns="http://www.w3.org/2000/svg">
<path d="M7.18164 19.6762C5.75198 19.5432 4.55042 18.4974 4.35245 17.0753C4.12591 15.448 4 13.775 4 12.0529C4 10.2699 4.12595 8.51556 4.36849 6.83591C4.56032 5.50747 5.64464 4.50476 6.97951 4.36455C9.23459 4.12769 11.5906 4 14 4C16.4019 4 18.7163 4.13538 20.9734 4.36876C22.331 4.50914 23.4337 5.53268 23.6264 6.88386C23.8642 8.55052 24 10.2854 24 12.0529C24 13.8064 23.8515 15.5112 23.6178 17.1664C23.4234 18.5434 22.3031 19.5943 20.9196 19.7348C18.6844 19.9618 16.38 20.1058 14 20.1058C13.943 20.1058 13.8861 20.1056 13.8292 20.1054C12.151 22.0359 10.8643 22.9899 8.61538 24V19.809C8.25075 19.776 7.88821 19.7421 7.52788 19.7085C7.41224 19.6977 7.29683 19.6869 7.18164 19.6762Z" stroke="white" stroke-width="1.5" stroke-linecap="round" stroke-linejoin="round"/>
<path d="M9 9H19" stroke="white" stroke-width="1.5" stroke-linecap="round"/>
<path d="M9 12H19" stroke="white" stroke-width="1.5" stroke-linecap="round"/>
<path d="M9 15H19" stroke="white" stroke-width="1.5" stroke-linecap="round"/>
</svg>
