<svg xmlns="http://www.w3.org/2000/svg" viewBox="0 0 372.5 112.8"><defs><style>.cls-1{fill:none;stroke:#2c278c;stroke-width:2px;}.cls-2{fill:#2c278c;}</style></defs><title>LOGO2</title><g id="Layer_2" data-name="Layer 2"><g id="Layer_1-2" data-name="Layer 1"><path class="cls-1" d="M137.73,15c13.3-2.73,27.21-5.16,41.56-7.21C281.53-6.87,367.52,3.05,371.37,29.92s-75.93,60.5-178.16,75.13S5,109.75,1.13,82.88C-.64,70.45,15.46,56.58,43.41,43.8"/><path class="cls-2" d="M96.52,91.72q0,4.08-5.4,8.31-8.4,6.5-20.45,6.16a41.2,41.2,0,0,1-19-5A29.62,29.62,0,0,1,36.91,75.51q0-9.41,7.32-18.29T60.69,46.91l8.4-1.25A25,25,0,0,1,72,45.58a32.8,32.8,0,0,1,11.8,1.91l1.91.75c4.27,1.66,6.88,3,7.82,4.15l1.25,1.92.16,1.24c.22,1.67.39,3,.5,4.12s.17,1.84.17,2.29a8,8,0,0,1-.25,2.16q-.49,2.75-4,2.74A6.47,6.47,0,0,1,88.21,66a4.33,4.33,0,0,1-2.08-2.12l-.92-2.5A11.24,11.24,0,0,0,83.88,59,14.35,14.35,0,0,0,82,56.8a12.11,12.11,0,0,0-2.24-1.66,8.35,8.35,0,0,0-2.25-.92A24.2,24.2,0,0,0,73,53.56a12,12,0,0,0-8.31,3.32A16.17,16.17,0,0,0,60,64.7,41.52,41.52,0,0,0,58.86,75v3.66a38.05,38.05,0,0,0,1.66,7.65,12.49,12.49,0,0,0,1.87,4.07,14.9,14.9,0,0,0,3,3.2,13.33,13.33,0,0,0,3.86,2.12,13,13,0,0,0,4.37.75,17.45,17.45,0,0,0,11-3.58,27.19,27.19,0,0,0,2.5-2.24q3.41-3.4,5.32-3.41c1.77,0,3,1,3.82,3A4.22,4.22,0,0,1,96.52,91.72Z"/><path class="cls-2" d="M142,98.54a15.82,15.82,0,0,1-11.3,6.81c-1.94.12-4.83.37-8.65.75h-1.41l-1.88-.2-5.27-.63a15.54,15.54,0,0,1-11.39-6.73,20.89,20.89,0,0,1-4.16-12.72,19.8,19.8,0,0,1,4.57-13,17,17,0,0,1,11.81-6.57q6.56-.75,7.73-.75,12.23,0,18.87,6.65,5.24,5.23,5.24,13.64A21,21,0,0,1,142,98.54ZM125.82,74.26A4.43,4.43,0,0,0,122,72.43a5.27,5.27,0,0,0-4.16,2.33q-2,3.17-2,11.06,0,8.4,2.32,11.72A4.51,4.51,0,0,0,122,99.45q4.74,0,5.74-6.9c.11-.94.2-2.2.29-3.78s.12-3.45.12-5.61C128.15,79.33,127.38,76.37,125.82,74.26Z"/><path class="cls-2" d="M175.36,57.22a11,11,0,0,1-2.78.41c-2,0-3.22-.64-3.66-1.91l-.16-.33-.09-.5-.08-.33a.8.8,0,0,0-.5-.67c-.61-.33-.92.14-.92,1.41a2.75,2.75,0,0,1,.09.83l.33,1.83v8.73h4c2.88,0,4.33,1.42,4.33,4.24a3.78,3.78,0,0,1-2.33,3.41,6.58,6.58,0,0,1-1.83.42l-3.66.08V96a3.92,3.92,0,0,0,2,2.91l.41.17.42.33a3.25,3.25,0,0,1,1.33,2.58q0,3.07-3.33,3.08H147.47c-2.22,0-3.33-1.06-3.33-3.16A3.21,3.21,0,0,1,146,99.12l.42-.17A3.24,3.24,0,0,0,148.22,96l.08-.83V74.84h-1.41a3.58,3.58,0,0,1-3.12-1.33,4.7,4.7,0,0,1-.71-3.41q.67-3.41,3.58-3.41h1.66V65.2q0-10.56,4.53-15.51T167,44.74a16.92,16.92,0,0,1,1.87.17c.86.11,2,.28,3.37.5a8.62,8.62,0,0,1,4.4,2.24,5.43,5.43,0,0,1,2.08,4.16,5.54,5.54,0,0,1-.83,3A4.2,4.2,0,0,1,175.36,57.22Z"/><path class="cls-2" d="M208.29,57.22a11.07,11.07,0,0,1-2.79.41c-2,0-3.21-.64-3.65-1.91l-.17-.33-.08-.5-.09-.33a.78.78,0,0,0-.5-.67c-.61-.33-.91.14-.91,1.41a3.22,3.22,0,0,1,.08.83l.34,1.83v8.73h4c2.88,0,4.32,1.42,4.32,4.24a3.78,3.78,0,0,1-2.33,3.41,6.51,6.51,0,0,1-1.83.42l-3.66.08V96A3.94,3.94,0,0,0,203,99l.42.17.41.33a3.22,3.22,0,0,1,1.33,2.58q0,3.07-3.32,3.08H180.39c-2.21,0-3.32-1.06-3.32-3.16a3.21,3.21,0,0,1,1.83-2.83l.41-.17A3.21,3.21,0,0,0,181.14,96l.09-.83V74.84h-1.42a3.55,3.55,0,0,1-3.11-1.33A4.66,4.66,0,0,1,176,70.1q.66-3.41,3.57-3.41h1.67V65.2q0-10.56,4.53-15.51t14.17-4.95a16.92,16.92,0,0,1,1.87.17c.86.11,2,.28,3.37.5a8.61,8.61,0,0,1,4.41,2.24,5.46,5.46,0,0,1,2.08,4.16,5.54,5.54,0,0,1-.83,3A4.25,4.25,0,0,1,208.29,57.22Z"/><path class="cls-2" d="M234.1,105.11H212.74a3.05,3.05,0,0,1-2.46-1,3.31,3.31,0,0,1-.87-2.12,3.36,3.36,0,0,1,1.75-2.83l.41-.17A3.21,3.21,0,0,0,213.4,96l.09-.83-.09-16.29a3.41,3.41,0,0,0-1.83-2.83l-.41-.25-.58-.33a3.06,3.06,0,0,1-1.25-2.5q0-2.24,2.83-3.24l16.71-4.24a3.57,3.57,0,0,1,.91-.08q2.75,0,3.49,3.82a16.31,16.31,0,0,1,.09,2.5V95.21c0,1.83.61,3.08,1.83,3.74l.49.17.5.33a3,3,0,0,1,1.25,2.58,2.82,2.82,0,0,1-.25,1.16A3.16,3.16,0,0,1,234.1,105.11ZM215.85,60a6.64,6.64,0,0,1-3.11-5.4c-.11-2.61,1.16-4.85,3.82-6.74a9.94,9.94,0,0,1,7.07-2.24,11.8,11.8,0,0,1,7,2.24,7.53,7.53,0,0,1,3.33,6.24,7.21,7.21,0,0,1-3.41,6.07,11.9,11.9,0,0,1-6.9,2A13.12,13.12,0,0,1,215.85,60Z"/><path class="cls-2" d="M267.52,105.11a3,3,0,0,1-2.45-1,3.31,3.31,0,0,1-.87-2.12,3,3,0,0,1,1.74-2.83l.33-.17c.72-.33,1.11-.58,1.17-.74l.08-1.34.08-.83v-.83l.09-2.33.08-3.16V84.15l-.17-2.91V78.92l-.16-1q-.58-3.33-3.33-3.33-4.16,0-4.15,5.74L260,96.87a9,9,0,0,0,.16,1.54c.06.14.39.32,1,.54l.42.17a3.17,3.17,0,0,1,1.74,2.91c0,2-1,3.08-3,3.08h-21.2a3,3,0,0,1-2.45-1,3.27,3.27,0,0,1-.88-2.12,3.38,3.38,0,0,1,1.75-2.83L238,99c1.05-.38,1.71-1.44,2-3.16l.08-.58L240,78.92a3.41,3.41,0,0,0-1.83-2.83l-.41-.25-.5-.33A2.9,2.9,0,0,1,236,72.93c0-1.61.91-2.66,2.74-3.16l15.05-4.24a3.66,3.66,0,0,1,.92-.08c1.83,0,2.93,1.11,3.32,3.32l.09.42V71.6q4.15-5.91,14.38-5.9,7.82,0,11.35,4.32t3.53,13.39V90l-.08,1v4.24A4.18,4.18,0,0,0,289.22,99l.42.17.58.33a3.09,3.09,0,0,1,1.25,2.5c0,2.1-1.11,3.16-3.33,3.16Z"/><path class="cls-2" d="M324.92,105a3.72,3.72,0,0,1-2.83-1.49l-.41-1.17-.17-.41-.33-.75-.67.58-.91.67a18.54,18.54,0,0,1-11,3.49q-9.81,0-15.38-7.07a20.77,20.77,0,0,1-4.16-12.31q-.24-7.8,6.4-14.46t14.72-6.32c3.88.06,6.9.91,9.06,2.58V58.55a3.85,3.85,0,0,0-1.91-2.83l-.25-.08-.25-.17-.41-.33a2.76,2.76,0,0,1-1.33-2.5,3.12,3.12,0,0,1,2.74-3.24l16.8-4.24a3.57,3.57,0,0,1,.91-.08,2.51,2.51,0,0,1,2.66,1.58,12.36,12.36,0,0,1,.83,4.74V95.21A4.18,4.18,0,0,0,341,99l.42.17.58.33a3.16,3.16,0,0,1,1.17,2.5c0,2.1-1.08,3.16-3.25,3.16ZM322,73.26q-2.82,0-4.49,4.16c-.16.61-.36,1.59-.58,3a27.9,27.9,0,0,0-.33,4.45v1.74l.08,1.67a21.5,21.5,0,0,0,1.42,7.48A4.3,4.3,0,0,0,321.77,98q3.08,0,4.58-6.4a42.15,42.15,0,0,0,.58-8.57Q326.93,73.26,322,73.26Z"/><path class="cls-2" d="M53.76,25.47c-5.89.21-8.42,2.33-8.45,2.85,0,.32-.29.48,6.08,2,2.3.55,3.37,1.76,3.37,2.87,0,4.55-8,5.28-11.25,5.28-.89,0-3.67,0-3.67-1.33a4.74,4.74,0,0,1,1.16-2,6,6,0,0,1,2-.66c.12,0,.19,0,.19.16s-.23.34-.39.43a3,3,0,0,0-.39.34v0c8.15.3,10.39-2,10.39-2.42,0-1.16-6.33-2.08-7.42-2.26S43,30.17,43,28.8a8.32,8.32,0,0,1,.73-3c.71-1.17,4.84-3.34,9.84-3.34,1,0,2.06-.23,2.87.32a1.34,1.34,0,0,1,.6.76A1.9,1.9,0,0,1,56,26a2.53,2.53,0,0,1-1.11.17C53.94,26.06,53.76,25.47,53.76,25.47Z"/><path class="cls-2" d="M62.39,35.13c-1,1.25-3,3.31-4.77,3.31-1.35,0-2-1.56-2-2.72,0-2.79,2.86-5.5,4.23-5.5.38,0,1,.14,1,.64,0,1.14-2.24,3.32-3.2,4-.18.93.14,1.29,1.19,1.29,1.21,0,2.55-1.18,3.46-1.84ZM60.2,28.78a2.06,2.06,0,0,1,2-1.76.72.72,0,0,1,.75.71,2.1,2.1,0,0,1-1.82,2A.91.91,0,0,1,60.2,28.78Z"/><path class="cls-2" d="M73,33.57l.18,1c-1.21,1.07-3.56,3.88-5.23,3.88-.86,0-1.27-.73-1.27-1.51,0-1.37,1.23-2.87,2-3.92L68.57,33a18.13,18.13,0,0,0-3.51,3.49c-.34.44-1.19,1.56-1.81,1.56-1,0-1.25-1.44-1.27-2.22-.07-1.57,1.37-3.88,2.69-5a1.14,1.14,0,0,1,.89-.27c1.37,0,1.25.36,1.25.5,0,.89-2.87,3.2-2.87,3.74a.26.26,0,0,0,.25.26c.16,0,.37-.21.46-.32,1.82-2.33,6-5.14,6.69-5.14.09,0,.22.11.36.43A5.41,5.41,0,0,1,72,31.25c0,.89-2.81,2.62-2.81,4.2a.43.43,0,0,0,.42.41,4.84,4.84,0,0,0,2-1.14Z"/><path class="cls-2" d="M75.31,33.8c-.51.37-.92.71-.92,1.35s.55,1.23,1.74,1.23c1.73,0,3.72-1.6,5-2.62l.28.89c-1.4,1.48-4,3.74-6.12,3.74-1.76,0-2.6-1.64-2.6-3.33,0-1.92.68-2.63,2.16-3.75,1-.77,3.22-2,4.5-2a.91.91,0,0,1,1,1.05,4.12,4.12,0,0,1-2.42,3c-.53,0-.75-.57-.78-1Z"/><path class="cls-2" d="M89.46,34.69c-1.4,1.62-3.91,3.77-6.17,3.77-1.66,0-2.44-1.48-2.48-3-.1-3,3.21-6,6.18-6,.73,0,1.65.19,1.65,1.1,0,1.12-1.12,2.81-5.51,4.24l0,.51c-.07.86.68,1.16,1.41,1.16,1.62,0,3.54-1.67,4.75-2.62ZM86.63,31c0-.16-.12-.3-.28-.25a5,5,0,0,0-3.08,2.9C85.28,33,86.65,31.41,86.63,31Z"/><path class="cls-2" d="M101.37,29.35c-.16,0-.64.12-.77.12-.44,0-.53-.58-.53-.89a6.09,6.09,0,0,1,1.28-3c1.32-1.51,5-2.22,7-2.22,1.72,0,2.56.46,2.56,3.61,0,1.23,0,2.31-5.62,5.3a37.41,37.41,0,0,0-5.59,3.44l0,0,8.88-1.55c-.6,1.69-1,3.26-3,3.65-3.56.66-6.21.78-6.8.32a3.55,3.55,0,0,1-1-2.56c0-2.07,6.51-5.41,8.25-6.37.95-.52,3.21-1.73,3.21-3,0-.45-.54-.59-.86-.59-1.9,0-4.48,1.35-6.17,2.15v0l1.35.16c.3.05.87.05.87.48s-.32.39-.57.41Z"/><path class="cls-2" d="M123.63,27.64c0,4.38-4,10.36-9.48,10.75-2.1.16-3.33-1.92-3.33-3.86,0-2.58,1.64-5.41,3.33-7.28,2-2.21,5.5-4,7-4a2.48,2.48,0,0,1,2,1.59c0,.26-.55.26-.7.41C123.51,25.59,123.63,26.73,123.63,27.64Zm-4.18-.91c-4.11,2.3-5.91,5.54-6,7.89,0,.44.07,1.76.71,1.76A6.19,6.19,0,0,0,116.78,35L119,33c1-1.12,2.95-3.83,2.95-5.34,0-.48-.23-1.28-.87-1.35A3.18,3.18,0,0,0,119.45,26.73Z"/><path class="cls-2" d="M127.16,29.35c-.16,0-.64.12-.77.12-.44,0-.53-.58-.53-.89a6.09,6.09,0,0,1,1.28-3c1.32-1.51,5-2.22,7-2.22,1.71,0,2.55.46,2.55,3.61,0,1.23,0,2.31-5.61,5.3a38,38,0,0,0-5.6,3.44l0,0,8.88-1.55c-.59,1.69-1,3.26-3,3.65-3.56.66-6.21.78-6.8.32a3.58,3.58,0,0,1-1-2.56c0-2.07,6.5-5.41,8.24-6.37,1-.52,3.21-1.73,3.21-3,0-.45-.54-.59-.86-.59-1.9,0-4.48,1.35-6.17,2.15v0l1.35.16c.3.05.87.05.87.48s-.32.39-.57.41Z"/><path class="cls-2" d="M140.06,29.35c-.16,0-.64.12-.78.12-.43,0-.52-.58-.52-.89a6.09,6.09,0,0,1,1.28-3c1.32-1.51,5-2.22,7-2.22,1.71,0,2.56.46,2.56,3.61,0,1.23,0,2.31-5.62,5.3a37.41,37.41,0,0,0-5.59,3.44l0,0,8.87-1.55c-.59,1.69-1,3.26-3,3.65-3.56.66-6.21.78-6.8.32a3.55,3.55,0,0,1-1-2.56c0-2.07,6.51-5.41,8.24-6.37,1-.52,3.22-1.73,3.22-3,0-.45-.55-.59-.87-.59-1.89,0-4.47,1.35-6.16,2.15v0l1.35.16c.29.05.86.05.86.48s-.32.39-.57.41Z"/><path class="cls-2" d="M68.72,17.08C64.15,13,63.3,9.13,64.86,5.7,67.73-.63,75.19-.07,80.54,4.27c5.71,4.64,10.49,13.51,12,18a.53.53,0,0,1-.86.55c-2.31-2.22-7-5.73-12.22-4.44C73.16,19.94,70.35,18.54,68.72,17.08Z"/><path class="cls-2" d="M91.48,9.26c.26-2.61,1.74-5.13,4.45-5,2.18.12,3.9,2.73,3.84,6,0,2.14-1.73,6-2.9,8.5a.92.92,0,0,1-1.69-.05,20,20,0,0,0-2.43-4.35A8.92,8.92,0,0,1,91.48,9.26Z"/></g></g></svg>