<svg width="27" height="27" viewBox="0 0 27 27" fill="none" xmlns="http://www.w3.org/2000/svg">
<path d="M15.6595 2.80522L17.8593 7.24109C18.1593 7.85859 18.9592 8.45088 19.6341 8.56429L23.6212 9.23219C26.1709 9.66066 26.7708 11.5257 24.9335 13.3656L21.8339 16.4909C21.3089 17.0202 21.0215 18.0409 21.1839 18.7718L22.0713 22.6406C22.7713 25.7029 21.1589 26.8875 18.4717 25.287L14.7346 23.0565C14.0597 22.6532 12.9473 22.6532 12.2599 23.0565L8.52283 25.287C5.84813 26.8875 4.22331 25.6903 4.92323 22.6406L5.81063 18.7718C5.97312 18.0409 5.68565 17.0202 5.16071 16.4909L2.06105 13.3656C0.23625 11.5257 0.823685 9.66066 3.3734 9.23219L7.36046 8.56429C8.02289 8.45088 8.8228 7.85859 9.12277 7.24109L11.3225 2.80522C12.5224 0.398259 14.4722 0.398259 15.6595 2.80522Z" fill="#EBEBEB" stroke="#D9D9D9" stroke-width="1.5" stroke-linecap="round" stroke-linejoin="round"/>
</svg>
