<svg width="23" height="23" viewBox="0 0 23 23" fill="none" xmlns="http://www.w3.org/2000/svg">
<g clip-path="url(#clip0_956_5078)">
<path d="M11.3047 5.00627H6.30469C5.77425 5.00627 5.26555 5.21698 4.89047 5.59205C4.5154 5.96712 4.30469 6.47583 4.30469 7.00627V18.0063C4.30469 18.5367 4.5154 19.0454 4.89047 19.4205C5.26555 19.7956 5.77425 20.0063 6.30469 20.0063H17.3047C17.8351 20.0063 18.3438 19.7956 18.7189 19.4205C19.094 19.0454 19.3047 18.5367 19.3047 18.0063V13.0063M17.8907 3.59227C18.0752 3.40125 18.2959 3.24888 18.5399 3.14406C18.7839 3.03924 19.0463 2.98407 19.3119 2.98176C19.5774 2.97946 19.8408 3.03006 20.0866 3.13062C20.3324 3.23118 20.5557 3.37969 20.7435 3.56748C20.9313 3.75526 21.0798 3.97857 21.1803 4.22436C21.2809 4.47015 21.3315 4.73351 21.3292 4.99907C21.3269 5.26463 21.2717 5.52707 21.1669 5.77108C21.0621 6.01508 20.9097 6.23577 20.7187 6.42027L12.1327 15.0063H9.30469V12.1783L17.8907 3.59227Z" stroke="white" stroke-width="2.04493" stroke-linecap="round" stroke-linejoin="round"/>
</g>
<defs>
<clipPath id="clip0_956_5078">
<rect width="23" height="23" fill="white"/>
</clipPath>
</defs>
</svg>
