<svg width="23" height="23" viewBox="0 0 23 23" fill="none" xmlns="http://www.w3.org/2000/svg">
<path d="M12.0865 9.1885C12.0865 7.291 10.534 5.7385 8.6365 5.7385C6.739 5.7385 5.1865 7.291 5.1865 9.1885C5.1865 11.086 6.739 12.6385 8.6365 12.6385C10.534 12.6385 12.0865 11.086 12.0865 9.1885ZM8.6365 10.3385C8.004 10.3385 7.4865 9.821 7.4865 9.1885C7.4865 8.556 8.004 8.0385 8.6365 8.0385C9.269 8.0385 9.7865 8.556 9.7865 9.1885C9.7865 9.821 9.269 10.3385 8.6365 10.3385ZM16.1115 12.6385C17.388 12.6385 18.4115 11.615 18.4115 10.3385C18.4115 9.062 17.388 8.0385 16.1115 8.0385C14.835 8.0385 13.8 9.062 13.8115 10.3385C13.8115 11.615 14.835 12.6385 16.1115 12.6385ZM11.5 0C5.152 0 0 5.152 0 11.5C0 17.848 5.152 23 11.5 23C17.848 23 23 17.848 23 11.5C23 5.152 17.848 0 11.5 0ZM4.4275 17.3765C5.2095 16.7555 7.038 16.1 8.6365 16.1C8.717 16.1 8.809 16.1115 8.901 16.1115C9.177 15.3755 9.6715 14.628 10.396 13.9725C9.752 13.8575 9.1425 13.7885 8.6365 13.7885C7.1415 13.7885 4.738 14.306 3.197 15.433C2.622 14.237 2.3 12.903 2.3 11.4885C2.3 6.417 6.4285 2.2885 11.5 2.2885C16.5715 2.2885 20.7 6.417 20.7 11.4885C20.7 12.8685 20.3895 14.1795 19.8375 15.364C18.6875 14.6855 17.1235 14.3635 16.1115 14.3635C14.3635 14.3635 10.9365 15.295 10.9365 17.4685V20.6655C8.326 20.516 6.003 19.274 4.4275 17.3765Z" fill="white"/>
</svg>
