<svg width="26" height="26" viewBox="0 0 26 26" fill="none" xmlns="http://www.w3.org/2000/svg">
<path d="M11.75 16.75L8 13M8 13L11.75 9.25M8 13H18M1.75 13C1.75 11.5226 2.04099 10.0597 2.60636 8.69481C3.17172 7.3299 4.00039 6.08971 5.04505 5.04505C6.08971 4.00039 7.3299 3.17172 8.69481 2.60636C10.0597 2.04099 11.5226 1.75 13 1.75C14.4774 1.75 15.9403 2.04099 17.3052 2.60636C18.6701 3.17172 19.9103 4.00039 20.955 5.04505C21.9996 6.08971 22.8283 7.3299 23.3936 8.69481C23.959 10.0597 24.25 11.5226 24.25 13C24.25 15.9837 23.0647 18.8452 20.955 20.955C18.8452 23.0647 15.9837 24.25 13 24.25C10.0163 24.25 7.15483 23.0647 5.04505 20.955C2.93526 18.8452 1.75 15.9837 1.75 13Z" stroke="#2C278C" stroke-width="2.04493" stroke-linecap="round" stroke-linejoin="round"/>
</svg>
