<svg width="82" height="82" viewBox="0 0 82 82" fill="none" xmlns="http://www.w3.org/2000/svg">
<path d="M41.4302 77.1603C45.4379 74.0025 68.9497 54.5372 68.9497 32.4897C68.9497 16.9722 56.3703 4.39282 40.8528 4.39282C25.3353 4.39282 12.7559 16.9722 12.7559 32.4897C12.7559 54.5372 36.2676 74.0025 40.2753 77.1603C40.6237 77.4347 41.0819 77.4347 41.4302 77.1603Z" fill="#D7E0FF" stroke="#2C278C" stroke-width="2" stroke-linecap="round" stroke-linejoin="round"/>
<path d="M41.0005 53.7553C52.5739 53.7553 61.956 44.3732 61.956 32.7998C61.956 21.2264 52.5739 11.8442 41.0005 11.8442C29.427 11.8442 20.0449 21.2264 20.0449 32.7998C20.0449 44.3732 29.427 53.7553 41.0005 53.7553Z" fill="white" stroke="#4147D5" stroke-width="1.5" stroke-linecap="round" stroke-linejoin="round"/>
<path d="M41.0005 53.7553C52.5739 53.7553 61.956 44.3732 61.956 32.7998C61.956 21.2264 52.5739 11.8442 41.0005 11.8442C29.427 11.8442 20.0449 21.2264 20.0449 32.7998C20.0449 44.3732 29.427 53.7553 41.0005 53.7553Z" fill="white" stroke="#2C278C" stroke-width="2" stroke-linecap="round" stroke-linejoin="round"/>
<path d="M47.9141 30.209V37.6382C47.9141 40.0029 45.9959 41.9109 43.6413 41.9109H36.1614C33.8068 41.9109 31.8887 39.9928 31.8887 37.6382V30.209C31.8887 27.8443 33.8068 25.9363 36.1614 25.9363H43.6413C45.9959 25.9363 47.9141 27.8545 47.9141 30.209Z" stroke="#2C278C" stroke-width="2" stroke-linecap="round" stroke-linejoin="round"/>
<path d="M35.4414 23.6425V21.8665" stroke="#2C278C" stroke-width="2" stroke-linecap="round" stroke-linejoin="round"/>
<path d="M39.5 23.6425V21.8665" stroke="#2C278C" stroke-width="2" stroke-linecap="round" stroke-linejoin="round"/>
<path d="M43.5605 23.6425V21.8665" stroke="#2C278C" stroke-width="2" stroke-linecap="round" stroke-linejoin="round"/>
<path d="M52.1868 32.939C52.1868 35.2936 50.2686 37.2118 47.9141 37.2118V28.6663C50.2686 28.6663 52.1868 30.5743 52.1868 32.939Z" stroke="#2C278C" stroke-width="2" stroke-linecap="round" stroke-linejoin="round"/>
<path d="M31.8887 31.7617H47.6299" stroke="#2C278C" stroke-width="2" stroke-linecap="round" stroke-linejoin="round"/>
</svg>
