<svg width="27" height="25" viewBox="0 0 27 25" fill="none" xmlns="http://www.w3.org/2000/svg">
<path d="M17.9206 12.3251C20.4532 12.3251 22.5063 10.272 22.5063 7.73946C22.5063 5.20687 20.4532 3.15381 17.9206 3.15381C15.388 3.15381 13.335 5.20687 13.335 7.73946C13.335 10.272 15.388 12.3251 17.9206 12.3251Z" fill="#FBDCDC"/>
<path d="M17.9209 12.3254C20.4535 12.3254 22.5065 10.2723 22.5065 7.7397C22.5065 5.7806 21.278 4.10844 19.5493 3.4516" stroke="#F91D6F" stroke-width="2" stroke-linecap="round" stroke-linejoin="round"/>
<path d="M24.1839 18.767C26.427 20.2609 24.9124 23.1423 22.2173 23.1423H12.0967C9.40162 23.1423 7.88699 20.2609 10.1301 18.767C12.142 17.427 14.5583 16.646 17.157 16.646C19.7557 16.646 22.172 17.427 24.1839 18.767Z" fill="#FBDCDC"/>
<path d="M10.2022 11.4163C12.9475 11.4163 15.173 9.19076 15.173 6.44547C15.173 3.70017 12.9475 1.47467 10.2022 1.47467C7.45695 1.47467 5.23145 3.70017 5.23145 6.44547C5.23145 9.19076 7.45695 11.4163 10.2022 11.4163Z" fill="#FBDCDC" stroke="#F91D6F" stroke-width="2" stroke-linecap="round" stroke-linejoin="round"/>
<path d="M17.8188 18.4C20.2503 20.0195 18.6084 23.1429 15.687 23.1429H4.71634C1.79494 23.1429 0.153093 20.0195 2.58456 18.4C4.76553 16.9474 7.38475 16.1009 10.2017 16.1009C13.0186 16.1009 15.6379 16.9474 17.8188 18.4Z" fill="#FBDCDC" stroke="#F91D6F" stroke-width="2"/>
<path d="M15.2646 22.1426C14.7124 22.1426 14.2646 22.5903 14.2646 23.1426C14.2646 23.6948 14.7124 24.1426 15.2646 24.1426V22.1426ZM24.1848 18.7672L24.7391 17.9349L24.7391 17.9349L24.1848 18.7672ZM22.6172 16.7781C22.1108 16.5578 21.5216 16.7896 21.3012 17.296C21.0808 17.8024 21.3127 18.3916 21.8191 18.612L22.6172 16.7781ZM15.2646 24.1426H22.2181V22.1426H15.2646V24.1426ZM22.2181 24.1426C23.9208 24.1426 25.3409 23.2274 25.9549 21.9476C26.2643 21.3027 26.3692 20.5556 26.1673 19.8173C25.9639 19.0734 25.4724 18.4233 24.7391 17.9349L23.6304 19.5995C24.0187 19.8581 24.179 20.1284 24.2382 20.3449C24.2989 20.5671 24.2774 20.8205 24.1516 21.0826C23.8952 21.617 23.2105 22.1426 22.2181 22.1426V24.1426ZM21.8191 18.612C22.454 18.8883 23.0598 19.2194 23.6304 19.5995L24.7391 17.9349C24.071 17.49 23.3614 17.102 22.6172 16.7781L21.8191 18.612Z" fill="#F91D6F"/>
</svg>
