<svg width="30" height="30" viewBox="0 0 30 30" fill="none" xmlns="http://www.w3.org/2000/svg">
<circle cx="15" cy="15" r="15" fill="white"/>
<path fill-rule="evenodd" clip-rule="evenodd" d="M13.6467 20.3919L21.9636 12.5176C23.346 11.2087 23.2391 8.89179 21.7278 7.40606C20.252 5.95531 18.0013 5.85562 16.7005 7.18338L8.61041 15.441C8.61041 15.441 10.4025 16.1539 11.662 17.392C12.9214 18.6301 13.6467 20.3919 13.6467 20.3919Z" fill="#4147D5" fill-opacity="0.2"/>
<path d="M13.6467 20.3919L12.9572 20.6116C13.0567 20.8533 13.2665 21.0414 13.5155 21.112C13.7644 21.1826 14.0188 21.1262 14.1923 20.9619L13.6467 20.3919ZM8.61041 15.441L8.04776 14.8877C7.87813 15.0609 7.81859 15.3187 7.88992 15.5712C7.96125 15.8238 8.15355 16.0361 8.39974 16.134L8.61041 15.441ZM21.9636 12.5176L21.418 11.9476L21.9636 12.5176ZM9.17307 15.9942L17.2631 7.73661L16.1378 6.63014L8.04776 14.8877L9.17307 15.9942ZM21.418 11.9476L13.1011 19.8219L14.1923 20.9619L22.5092 13.0876L21.418 11.9476ZM8.61041 15.441C8.39974 16.134 8.39961 16.134 8.39949 16.1339C8.39946 16.1339 8.39934 16.1339 8.39928 16.1339C8.39916 16.1338 8.39906 16.1338 8.39899 16.1337C8.39884 16.1337 8.39881 16.1337 8.39888 16.1337C8.39902 16.1337 8.39958 16.134 8.40055 16.1344C8.4025 16.1352 8.4061 16.1366 8.41128 16.1387C8.42165 16.143 8.43833 16.1499 8.46076 16.1595C8.50565 16.1786 8.5734 16.2081 8.65957 16.2477C8.83226 16.327 9.07694 16.4457 9.35854 16.6006C9.92989 16.9148 10.6164 17.3581 11.166 17.8984L12.1579 16.8857C11.4481 16.1879 10.6088 15.6556 9.96927 15.3038C9.64542 15.1257 9.36334 14.9888 9.16065 14.8957C9.05913 14.8491 8.97703 14.8132 8.919 14.7885C8.88996 14.7762 8.86691 14.7666 8.85041 14.7598C8.84216 14.7564 8.83554 14.7537 8.83063 14.7517C8.82818 14.7507 8.82615 14.7499 8.82455 14.7493C8.82376 14.7489 8.82307 14.7487 8.82249 14.7484C8.8222 14.7483 8.82194 14.7482 8.82171 14.7481C8.82159 14.7481 8.82144 14.748 8.82138 14.748C8.82123 14.7479 8.82109 14.7479 8.61041 15.441ZM11.166 17.8984C11.7153 18.4383 12.1653 19.1121 12.4842 19.6723C12.6414 19.9485 12.7618 20.1884 12.8422 20.3577C12.8823 20.4421 12.9122 20.5084 12.9316 20.5523C12.9412 20.5742 12.9482 20.5905 12.9525 20.6006C12.9547 20.6056 12.9561 20.6091 12.9569 20.611C12.9573 20.6119 12.9575 20.6124 12.9576 20.6125C12.9576 20.6126 12.9576 20.6125 12.9575 20.6124C12.9575 20.6123 12.9574 20.6122 12.9574 20.6121C12.9573 20.612 12.9573 20.6119 12.9573 20.6119C12.9572 20.6117 12.9572 20.6116 13.6467 20.3919C14.3363 20.1722 14.3362 20.172 14.3361 20.1719C14.3361 20.1718 14.3361 20.1717 14.336 20.1716C14.3359 20.1713 14.3358 20.1711 14.3357 20.1708C14.3354 20.1702 14.3352 20.1695 14.3348 20.1687C14.3342 20.1671 14.3333 20.1651 14.3323 20.1626C14.3303 20.1578 14.3275 20.1512 14.324 20.143C14.3171 20.1267 14.3072 20.1039 14.2946 20.0752C14.2694 20.0179 14.2328 19.937 14.1852 19.8369C14.0903 19.6371 13.9507 19.3592 13.7691 19.0402C13.4105 18.41 12.8681 17.5839 12.1579 16.8857L11.166 17.8984ZM22.5092 13.0876C24.1827 11.5031 24.0533 8.69829 22.2237 6.89971L21.2318 7.9124C22.4249 9.08528 22.5093 10.9144 21.418 11.9476L22.5092 13.0876ZM17.2631 7.73661C18.2901 6.68844 20.0668 6.76714 21.2318 7.9124L22.2237 6.89971C20.4372 5.14348 17.7126 5.0228 16.1378 6.63014L17.2631 7.73661Z" fill="#4147D5"/>
<path d="M7.70409 21.927L13.6421 20.3985C13.6421 20.3985 12.9185 18.6361 11.6602 17.3969C10.4019 16.1577 8.61039 15.443 8.61039 15.443L7.04807 21.2652C6.94684 21.6425 7.3255 22.0244 7.70409 21.927Z" fill="white"/>
<path d="M13.6421 20.3985L13.9002 21.1263C14.0933 21.0766 14.249 20.9471 14.3306 20.768C14.4122 20.589 14.4127 20.3762 14.3319 20.1795L13.6421 20.3985ZM7.70409 21.927L7.96213 22.6548L7.96213 22.6548L7.70409 21.927ZM7.04807 21.2652L7.77405 21.5301L7.04807 21.2652ZM8.61039 15.443L8.82171 14.7501C8.62688 14.6724 8.41718 14.6741 8.24053 14.7548C8.06388 14.8354 7.93539 14.9882 7.88441 15.1782L8.61039 15.443ZM11.6602 17.3969L11.1638 17.9028L11.6602 17.3969ZM13.3841 19.6708L7.44604 21.1992L7.96213 22.6548L13.9002 21.1263L13.3841 19.6708ZM7.77405 21.5301L9.33637 15.7079L7.88441 15.1782L6.32209 21.0004L7.77405 21.5301ZM8.61039 15.443C8.39907 16.1359 8.39895 16.1359 8.39883 16.1358C8.3988 16.1358 8.39868 16.1358 8.39862 16.1357C8.3985 16.1357 8.3984 16.1357 8.39833 16.1356C8.39818 16.1356 8.39815 16.1356 8.39822 16.1356C8.39836 16.1356 8.39892 16.1359 8.39989 16.1363C8.40184 16.137 8.40544 16.1385 8.41062 16.1407C8.42098 16.1449 8.43765 16.1519 8.46007 16.1614C8.50495 16.1806 8.57267 16.2102 8.6588 16.2498C8.83142 16.3293 9.07599 16.4482 9.35745 16.6034C9.92851 16.9181 10.6146 17.362 11.1638 17.9028L12.1566 16.891C11.4474 16.1926 10.6086 15.6595 9.96938 15.3071C9.64569 15.1287 9.36374 14.9915 9.16113 14.8983C9.05966 14.8516 8.97759 14.8156 8.91958 14.7909C8.89055 14.7785 8.86751 14.7689 8.85101 14.7621C8.84277 14.7587 8.83615 14.756 8.83124 14.754C8.82879 14.753 8.82676 14.7522 8.82517 14.7515C8.82437 14.7512 8.82369 14.7509 8.82311 14.7507C8.82282 14.7506 8.82256 14.7505 8.82232 14.7504C8.82221 14.7503 8.82205 14.7503 8.82199 14.7503C8.82185 14.7502 8.82171 14.7501 8.61039 15.443ZM11.1638 17.9028C11.7125 18.4432 12.1619 19.1174 12.4802 19.6779C12.6372 19.9543 12.7574 20.1943 12.8376 20.3636C12.8777 20.4481 12.9076 20.5144 12.9268 20.5583C12.9365 20.5803 12.9435 20.5965 12.9477 20.6066C12.9499 20.6117 12.9513 20.6151 12.9521 20.617C12.9525 20.6179 12.9527 20.6184 12.9528 20.6186C12.9528 20.6186 12.9528 20.6186 12.9527 20.6184C12.9527 20.6183 12.9526 20.6182 12.9526 20.6181C12.9526 20.618 12.9525 20.6179 12.9525 20.6179C12.9524 20.6178 12.9524 20.6176 13.6421 20.3985C14.3319 20.1795 14.3318 20.1793 14.3318 20.1792C14.3317 20.1791 14.3317 20.179 14.3316 20.1788C14.3315 20.1786 14.3314 20.1783 14.3313 20.178C14.3311 20.1775 14.3308 20.1768 14.3304 20.176C14.3298 20.1744 14.3289 20.1724 14.3279 20.1699C14.3259 20.165 14.3231 20.1585 14.3197 20.1503C14.3127 20.1339 14.3029 20.1111 14.2903 20.0825C14.2651 20.0251 14.2286 19.9441 14.1812 19.844C14.0864 19.6441 13.9471 19.3661 13.7658 19.047C13.4077 18.4164 12.8661 17.5898 12.1566 16.891L11.1638 17.9028ZM7.44604 21.1992C7.63534 21.1505 7.82466 21.3415 7.77405 21.5301L6.32209 21.0004C6.06902 21.9435 7.01566 22.8984 7.96213 22.6548L7.44604 21.1992Z" fill="#4147D5"/>
</svg>
