<svg width="26" height="26" viewBox="0 0 26 26" fill="none" xmlns="http://www.w3.org/2000/svg">
<path d="M14.25 9.25L18 13M18 13L14.25 16.75M18 13H8M24.25 13C24.25 14.4774 23.959 15.9403 23.3936 17.3052C22.8283 18.6701 21.9996 19.9103 20.955 20.955C19.9103 21.9996 18.6701 22.8283 17.3052 23.3936C15.9403 23.959 14.4774 24.25 13 24.25C11.5226 24.25 10.0597 23.959 8.69481 23.3936C7.3299 22.8283 6.08971 21.9996 5.04505 20.955C4.00039 19.9103 3.17172 18.6701 2.60636 17.3052C2.04099 15.9403 1.75 14.4774 1.75 13C1.75 10.0163 2.93526 7.15483 5.04505 5.04505C7.15483 2.93526 10.0163 1.75 13 1.75C15.9837 1.75 18.8452 2.93526 20.955 5.04505C23.0647 7.15483 24.25 10.0163 24.25 13Z" stroke="#2C278C" stroke-width="2.04493" stroke-linecap="round" stroke-linejoin="round"/>
</svg>
