<svg width="19" height="19" viewBox="0 0 19 19" fill="none" xmlns="http://www.w3.org/2000/svg">
<path d="M10.9685 2.22755L12.4643 5.24394C12.6683 5.66384 13.2122 6.0666 13.6712 6.14372L16.3824 6.59789C18.1162 6.88925 18.5242 8.1575 17.2748 9.40862L15.167 11.5338C14.8101 11.8937 14.6146 12.5878 14.7251 13.0848L15.3285 15.7156C15.8045 17.798 14.7081 18.6035 12.8808 17.5152L10.3396 15.9984C9.88061 15.7242 9.1242 15.7242 8.65675 15.9984L6.11553 17.5152C4.29673 18.6035 3.19185 17.7894 3.6678 15.7156L4.27123 13.0848C4.38172 12.5878 4.18624 11.8937 3.82928 11.5338L1.72151 9.40862C0.48065 8.1575 0.880106 6.88925 2.61391 6.59789L5.32511 6.14372C5.77556 6.0666 6.3195 5.66384 6.52348 5.24394L8.01932 2.22755C8.83523 0.590816 10.1611 0.590816 10.9685 2.22755Z" fill="black" fill-opacity="0.08" stroke="#D9D9D9" stroke-width="1.5" stroke-linecap="round" stroke-linejoin="round"/>
</svg>

