<svg width="18" height="17" viewBox="0 0 18 17" fill="none" xmlns="http://www.w3.org/2000/svg">
<path d="M10.3821 1.65534L11.79 4.4943C11.9819 4.8895 12.4939 5.26856 12.9258 5.34115L15.4775 5.7686C17.1094 6.04282 17.4933 7.23647 16.3175 8.414L14.3337 10.4142C13.9977 10.7529 13.8137 11.4062 13.9177 11.874L14.4857 14.35C14.9336 16.3098 13.9017 17.068 12.1819 16.0437L9.79017 14.6162C9.35822 14.3581 8.6463 14.3581 8.20635 14.6162L5.81461 16.0437C4.1028 17.068 3.06292 16.3018 3.51087 14.35L4.07881 11.874C4.18279 11.4062 3.99881 10.7529 3.66285 10.4142L1.67907 8.414C0.5112 7.23647 0.887159 6.04282 2.51898 5.7686L5.0707 5.34115C5.49465 5.26856 6.00659 4.8895 6.19857 4.4943L7.60642 1.65534C8.37433 0.114886 9.62219 0.114886 10.3821 1.65534Z" fill="black" stroke="#292D32" stroke-linecap="round" stroke-linejoin="round"/>
</svg>
