<svg width="21" height="21" viewBox="0 0 21 21" fill="none" xmlns="http://www.w3.org/2000/svg">
<path d="M12.25 8.75H16.4185C16.7168 8.75001 17.0101 8.82625 17.2706 8.97148C17.5311 9.11672 17.7502 9.32612 17.907 9.57982C18.0638 9.83352 18.1532 10.1231 18.1667 10.421C18.1801 10.719 18.1172 11.0154 17.9839 11.2823L14.9214 17.4073C14.776 17.6982 14.5525 17.9428 14.2758 18.1137C13.9991 18.2847 13.6803 18.3752 13.3551 18.375H9.84025C9.69763 18.375 9.555 18.3575 9.41588 18.3225L6.125 17.5M12.25 8.75V4.375C12.25 3.91087 12.0656 3.46575 11.7374 3.13756C11.4092 2.80937 10.9641 2.625 10.5 2.625H10.4169C9.97938 2.625 9.625 2.97937 9.625 3.41688C9.625 4.04163 9.44038 4.65237 9.093 5.17212L6.125 9.625V17.5M12.25 8.75H10.5M6.125 17.5H4.375C3.91087 17.5 3.46575 17.3156 3.13756 16.9874C2.80937 16.6592 2.625 16.2141 2.625 15.75V10.5C2.625 10.0359 2.80937 9.59075 3.13756 9.26256C3.46575 8.93438 3.91087 8.75 4.375 8.75H6.5625" stroke="#090909" stroke-opacity="0.3" stroke-width="2.04493" stroke-linecap="round" stroke-linejoin="round"/>
</svg>
