<svg width="26" height="26" viewBox="0 0 26 26" fill="none" xmlns="http://www.w3.org/2000/svg">
<path d="M2.02025 22.1242C2.12536 23.0843 2.88793 23.8463 3.84785 23.9537C6.29796 24.2279 8.85759 24.5795 11.491 24.5795C14.1243 24.5795 16.684 24.2279 19.1341 23.9537C20.094 23.8463 20.8566 23.0843 20.9617 22.1242C21.2288 19.6834 21.56 17.1336 21.56 14.5104C21.56 11.8873 21.2288 9.33748 20.9617 6.89669C20.8566 5.93651 20.094 5.17459 19.1341 5.06715C16.684 4.79293 14.1243 4.44135 11.491 4.44135C8.8576 4.44135 6.29796 4.79293 3.84785 5.06715C2.88793 5.17459 2.12536 5.93651 2.02025 6.89669C1.75307 9.33748 1.42188 11.8873 1.42188 14.5104C1.42188 17.1336 1.75307 19.6834 2.02025 22.1242Z" fill="white"/>
<path d="M3.84785 23.9536L3.70881 25.1959H3.70881L3.84785 23.9536ZM19.1341 23.9536L19.2731 25.1959H19.2731L19.1341 23.9536ZM2.02025 6.89663L3.26283 7.03265L2.02025 6.89663ZM2.02025 22.1241L0.777673 22.2601H0.777673L2.02025 22.1241ZM3.84787 5.06709L3.9869 6.30934L3.84787 5.06709ZM10.0661 5.72462C10.7558 5.69356 11.2897 5.1093 11.2586 4.41964C11.2276 3.72999 10.6433 3.19609 9.95364 3.22716L10.0661 5.72462ZM20.9617 22.1242L19.7191 21.9881V21.9881L20.9617 22.1242ZM22.762 16.345C22.7966 15.6556 22.2657 15.0686 21.5762 15.034C20.8867 14.9994 20.2998 15.5303 20.2652 16.2198L22.762 16.345ZM11.491 23.3295C8.94676 23.3295 6.48032 22.9905 3.98689 22.7114L3.70881 25.1959C6.11561 25.4653 8.76843 25.8295 11.491 25.8295V23.3295ZM18.995 22.7114C16.5016 22.9905 14.0352 23.3295 11.491 23.3295V25.8295C14.2135 25.8295 16.8663 25.4653 19.2731 25.1959L18.995 22.7114ZM0.777673 6.76061C0.514448 9.16524 0.171875 11.8011 0.171875 14.5104H2.67188C2.67188 11.9733 2.99169 9.5096 3.26283 7.03265L0.777673 6.76061ZM0.171875 14.5104C0.171875 17.2196 0.514448 19.8555 0.777673 22.2601L3.26283 21.9881C2.99169 19.5111 2.67188 17.0475 2.67188 14.5104H0.171875ZM3.9869 6.30934C6.00919 6.08299 8.00697 5.81738 10.0661 5.72462L9.95364 3.22716C7.78605 3.32479 5.66307 3.60612 3.70883 3.82485L3.9869 6.30934ZM22.2042 22.2602C22.408 20.3992 22.6592 18.3941 22.762 16.345L20.2652 16.2198C20.1671 18.1736 19.9286 20.074 19.7191 21.9881L22.2042 22.2602ZM3.26283 7.03265C3.30405 6.65608 3.60631 6.35193 3.9869 6.30934L3.70883 3.82485C2.16959 3.99713 0.946664 5.21683 0.777673 6.76061L3.26283 7.03265ZM19.2731 25.1959C20.8123 25.0236 22.0352 23.804 22.2042 22.2602L19.7191 21.9881C19.6779 22.3647 19.3756 22.6688 18.995 22.7114L19.2731 25.1959ZM3.98689 22.7114C3.60631 22.6688 3.30405 22.3647 3.26283 21.9881L0.777673 22.2601C0.946664 23.8039 2.16955 25.0236 3.70881 25.1959L3.98689 22.7114Z" fill="#9A2ACC"/>
<path d="M18.7724 2.41927L11.929 10.1843L10.9915 14.5937C10.8406 15.3032 11.5802 15.9746 12.2728 15.7568L16.6609 14.3773L23.7293 6.93964C24.9033 5.70432 24.6985 3.63817 23.2775 2.38124C21.8897 1.15375 19.8727 1.17077 18.7724 2.41927Z" fill="#E5BBF8"/>
<path d="M11.929 10.1843L10.9439 9.31293C10.8213 9.45204 10.7369 9.62138 10.6974 9.80726L11.929 10.1843ZM18.7724 2.41927L19.7575 3.29061L19.7575 3.29061L18.7724 2.41927ZM23.7293 6.93964L24.6875 7.84037L23.7293 6.93964ZM16.6609 14.3773L17.1543 15.5658C17.3337 15.5094 17.4928 15.4109 17.619 15.2781L16.6609 14.3773ZM12.2728 15.7568L12.7662 16.9453H12.7662L12.2728 15.7568ZM10.9915 14.5937L12.2231 14.9707H12.2231L10.9915 14.5937ZM23.2775 2.38124L24.0585 1.49499L24.0585 1.49499L23.2775 2.38124ZM12.9141 11.0556L19.7575 3.29061L17.7873 1.54793L10.9439 9.31293L12.9141 11.0556ZM22.7712 6.0389L15.7027 13.4766L17.619 15.2781L24.6875 7.84037L22.7712 6.0389ZM16.1674 13.1889L11.7794 14.5684L12.7662 16.9453L17.1543 15.5658L16.1674 13.1889ZM12.2231 14.9707L13.1607 10.5613L10.6974 9.80726L9.75982 14.2167L12.2231 14.9707ZM11.7794 14.5684C12.0197 14.4928 12.2752 14.7257 12.2231 14.9707L9.75982 14.2167C9.40602 15.8807 11.1407 17.4563 12.7662 16.9453L11.7794 14.5684ZM24.6875 7.84037C26.3217 6.12079 26.0366 3.24467 24.0585 1.49499L22.4964 3.26749C23.3604 4.03168 23.4849 5.28785 22.7712 6.0389L24.6875 7.84037ZM19.7575 3.29061C20.4264 2.53155 21.6527 2.5212 22.4964 3.26749L24.0585 1.49499C22.1266 -0.213704 19.319 -0.190004 17.7873 1.54793L19.7575 3.29061Z" fill="#9A2ACC"/>
</svg>
