<svg width="35" height="40" viewBox="0 0 35 40" fill="none" xmlns="http://www.w3.org/2000/svg">
<g clip-path="url(#clip0_1571_5729)">
<path d="M30.3081 10.1127C30.5595 9.82662 30.5595 9.31291 30.3081 9.02679L31.172 8.26774L30.3081 9.02679L26.5111 4.70516M30.3081 10.1127L26.5111 4.70516M30.3081 10.1127L28.2025 12.5092L23.6484 7.32585M30.3081 10.1127L23.6484 7.32585M26.5111 4.70516C26.4039 4.58316 26.3004 4.55591 26.231 4.55591C26.1616 4.55591 26.0581 4.58316 25.9509 4.70517L23.6484 7.32585M26.5111 4.70516L23.6484 7.32585M7.99916 35.5038H3.58457V30.1615L20.3813 11.0443L24.9355 16.2277L7.99916 35.5038Z" stroke="#2C278C" stroke-width="2.3"/>
</g>
<defs>
<clipPath id="clip0_1571_5729">
<rect width="34.0808" height="38.7892" fill="white" transform="translate(0 0.635254)"/>
</clipPath>
</defs>
</svg>
