<svg width="28" height="44" viewBox="0 0 28 44" fill="none" xmlns="http://www.w3.org/2000/svg">
<path d="M13.5321 1.1289C19.1833 1.1289 24.031 6.47063 24.031 13.3769C24.031 16.9797 22.3958 21.3294 20.281 25.4091C18.184 29.4546 15.6945 33.0873 14.1431 35.2161C13.8288 35.6473 13.2353 35.6473 12.921 35.2161C11.3696 33.0873 8.88017 29.4546 6.78311 25.4091C4.66835 21.3294 3.03315 16.9797 3.03315 13.3769C3.03315 6.47063 7.88084 1.1289 13.5321 1.1289ZM13.5321 7.8276C10.6581 7.8276 8.56576 10.4724 8.56576 13.3769C8.56576 16.2814 10.6581 18.9263 13.5321 18.9263C16.4287 18.9263 18.4984 16.2777 18.4984 13.3769C18.4984 10.4724 16.406 7.8276 13.5321 7.8276ZM25.9641 42.2815H1.1V41.173H25.9641V42.2815Z" stroke="#2C278C" stroke-width="2.2"/>
</svg>
