<svg width="169" height="37" viewBox="0 0 169 37" fill="none" xmlns="http://www.w3.org/2000/svg">
<path d="M25.28 0.479999V36.36H30.04V0.479999H25.28ZM0.32 28.36H2.8C8.04 28.36 11.6 28.2 15.6 27.36L15.24 23.32C11.96 24 9.04 24.2 5.2 24.24V8.52H13.96V4.56H0.32V28.36ZM11.52 17.68H17.88V34.76H22.52V1.16H17.88V13.64H11.52V17.68ZM44.3209 1.56C38.8409 1.56 34.7609 4.96 34.7609 9.76C34.7609 14.48 38.8409 17.92 44.3209 17.92C49.8009 17.92 53.8409 14.48 53.8409 9.76C53.8409 4.96 49.8009 1.56 44.3209 1.56ZM39.6009 9.76C39.6009 7.16 41.6009 5.64 44.3209 5.64C47.0009 5.64 49.0809 7.16 49.0809 9.76C49.0809 12.36 47.0009 13.92 44.3209 13.92C41.6009 13.92 39.6009 12.36 39.6009 9.76ZM40.1209 23.84H59.0809V26.08H40.2009V35.96H64.8809V32.08H45.0809V29.68H63.9609V19.96H40.1209V23.84ZM58.9609 18.52H63.9609V0.519999H58.9609V18.52ZM94.0019 0.44V36.44H98.9619V0.44H94.0019ZM71.0819 7.52H82.8819V13.4H71.1619V28.04H74.2819C80.7619 28.04 86.0819 27.84 91.9219 26.76L91.4419 22.8C86.2819 23.68 81.6419 23.92 76.1619 23.96V17.32H87.9619V3.52H71.0819V7.52ZM122.403 3.96H106.003V7.92H117.443C117.283 9.64 117.043 11.28 116.603 12.84L104.123 13.6L104.763 17.76L115.083 16.84C113.043 20.84 109.523 24.2 103.883 27.12L106.603 30.92C119.483 24.24 122.403 14.96 122.403 3.96ZM122.323 18.36H129.123V36.4H134.123V0.519999H129.123V14.32H122.323V18.36ZM164.004 0.519999V36.4H168.964V0.519999H164.004ZM139.084 24.04L139.564 28.12C146.004 28.08 154.324 27.96 161.884 26.64L161.604 23.04C160.124 23.2 158.564 23.36 157.004 23.48V7.8H160.164V3.84H140.004V7.8H143.204V24.04H139.084ZM148.044 23.92V7.8H152.164V23.8C150.764 23.84 149.404 23.88 148.044 23.92Z" fill="black"/>
</svg>
