<svg width="18" height="18" viewBox="0 0 18 18" fill="none" xmlns="http://www.w3.org/2000/svg">
<path d="M10.3821 2.15534L11.79 4.9943C11.9819 5.3895 12.4939 5.76856 12.9258 5.84115L15.4775 6.2686C17.1094 6.54282 17.4933 7.73647 16.3175 8.914L14.3337 10.9142C13.9977 11.2529 13.8137 11.9062 13.9177 12.374L14.4857 14.85C14.9336 16.8098 13.9017 17.568 12.1819 16.5437L9.79017 15.1162C9.35822 14.8581 8.6463 14.8581 8.20635 15.1162L5.81461 16.5437C4.1028 17.568 3.06292 16.8018 3.51087 14.85L4.07881 12.374C4.18279 11.9062 3.99881 11.2529 3.66285 10.9142L1.67907 8.914C0.5112 7.73647 0.887159 6.54282 2.51898 6.2686L5.0707 5.84115C5.49465 5.76856 6.00659 5.3895 6.19857 4.9943L7.60642 2.15534C8.37433 0.614886 9.62219 0.614886 10.3821 2.15534Z" fill="black" fill-opacity="0.08" stroke="#D9D9D9" stroke-linecap="round" stroke-linejoin="round"/>
</svg>
